<?xml version="1.0" encoding="UTF-8" standalone="no"?>
<svg
  xmlns:dc="http://purl.org/dc/elements/1.1/"
  xmlns:cc="http://creativecommons.org/ns#"
  xmlns:rdf="http://www.w3.org/1999/02/22-rdf-syntax-ns#"
  xmlns:svg="http://www.w3.org/2000/svg"
  xmlns="http://www.w3.org/2000/svg"
  xml:space="preserve"
  viewBox="0 0 475 475"
  version="1.1">
  <defs>
    <style>
      .cls-1 {
        fill: #5a8bc1;
        fill-rule: evenodd;
      }
    </style>
  </defs>
  <path class="cls-1"
        d="m 398.065,128.657 13.898,-13.896 c 3.867,1.792 8.597,1.122 11.791,-2.073 l 2.474,-2.471 c 4.087,-4.096 4.087,-10.741 0,-14.832 L 408.421,77.579 c -4.099,-4.099 -10.739,-4.099 -14.835,0 l -2.466,2.471 c -4.095,4.095 -4.095,10.736 0,14.832 l 0.551,0.542 -12.868,12.878 C 345.882,77.891 303.118,57.83 255.479,53.51 V 40.678 h 1.862 c 9.637,0 17.434,-7.805 17.434,-17.43 V 17.432 C 274.775,7.8 266.964,0 257.341,0 H 215.49 c -9.633,0 -17.433,7.805 -17.433,17.431 v 5.816 c 0,9.63 7.805,17.43 17.433,17.43 h 1.855 V 53.444 C 114.664,62.627 32.405,146.157 26.613,251.12 c -6.389,115.691 82.531,214.995 198.224,221.387 3.939,0.219 7.843,0.322 11.742,0.322 111.415,0 203.498,-87.206 209.638,-198.551 3.036,-54.992 -15.487,-106.253 -48.152,-145.621 z M 418.25,272.724 C 412.739,372.599 327.403,450.049 226.383,444.525 126.122,438.987 49.06,352.922 54.588,252.652 59.913,156.17 139.705,80.586 236.255,80.586 c 3.39,0 6.77,0.096 10.202,0.281 100.256,5.535 177.325,91.608 171.793,191.857 z M 398.331,260.883 H 387.01 c 0.012,-0.326 0.106,-0.612 0.106,-0.93 -0.014,-12.98 -10.58,-23.539 -23.552,-23.539 H 272.24 c -8.315,-14.423 -23.989,-23.836 -41.088,-23.836 -0.269,0 -0.535,0.038 -0.803,0.038 V 92.893 c 92.78,0 167.982,75.212 167.982,167.99 z m -24.881,-3.544 c -0.006,5.262 -4.282,9.541 -9.535,9.541 H 263.458 c -4.099,13.778 -16.865,23.825 -31.969,23.825 -18.431,0 -33.364,-14.938 -33.368,-33.366 0,-18.424 14.937,-33.362 33.368,-33.362 15.104,0 27.871,10.052 31.974,23.839 h 100.444 c 5.26,-0.001 9.537,4.267 9.543,9.523 z"
  />
</svg>
