<svg id="Isolation_Mode" data-name="Isolation Mode" xmlns="http://www.w3.org/2000/svg" viewBox="0 0 245 245"><defs><style>.cls-1{fill:#333;}</style></defs><title>arisMegaphone</title><path class="cls-1" d="M152.19,48.74a5.41,5.41,0,0,1-7.1-6.54L155.8,4.13a5.42,5.42,0,0,1,10.43,2.94L155.52,45.13A5.4,5.4,0,0,1,152.19,48.74Z"/><path class="cls-1" d="M176,95.35a5.42,5.42,0,0,1-4.52-9.81l54.38-30.4a5.42,5.42,0,0,1,5.29,9.46L176.81,95A5.89,5.89,0,0,1,176,95.35Z"/><path class="cls-1" d="M232.74,146.9a5.35,5.35,0,0,1-3.6.06l-27.27-9.13a5.42,5.42,0,1,1,3.44-10.28l27.27,9.14a5.41,5.41,0,0,1,.16,10.21Z"/><path class="cls-1" d="M101.42,232a15.15,15.15,0,0,1-16.2-6.55L52.6,174.91a15.17,15.17,0,0,1,25.49-16.44l32.62,50.59a15.16,15.16,0,0,1-4.53,21A14.92,14.92,0,0,1,101.42,232Z"/><path class="cls-1" d="M93.25,63.63C88.92,75.13,66,118.33,23,134.86c0,0-14.76,6.92-8.82,22.92s22,42.09,22,42.09,5.36,11.31,26.5.57c20.69-10.51,59.8-26.43,95.4-23.21Z"/><path class="cls-1" d="M152.67,109.14a15.15,15.15,0,0,0-18.9-9.12c-12.44-21.91-23.55-40.94-25.34-43.11-3.11-3.76-8.05-4-11.61-.14l69,121c3.95-.2,8.23-1.69,6-7.78-1.57-4.25-11.72-23-23.47-44.1A15.16,15.16,0,0,0,152.67,109.14Z"/></svg>